<svg width="92" height="102" xmlns="http://www.w3.org/2000/svg"><g stroke="#000" stroke-width="4" fill="none" fill-rule="evenodd" stroke-linecap="round" stroke-linejoin="round"><path d="M45.613 13.742c16.675 0 30.193 13.518 30.193 30.193v52a3.355 3.355 0 0 1-3.355 3.355H18.774a3.355 3.355 0 0 1-3.355-3.354V43.935c0-16.675 13.518-30.193 30.194-30.193z"/><path d="M28.839 67.419h33.548a6.71 6.71 0 0 1 6.71 6.71V85.87a6.71 6.71 0 0 1-6.71 6.709H28.839a6.709 6.709 0 0 1-6.71-6.71V74.13a6.709 6.709 0 0 1 6.71-6.71zM62.387 8.71v10.063h-.101a29.631 29.631 0 0 0-5.3-2.8l.218-.555h.15v-6.29a2.032 2.032 0 0 0-1.963-2.097H35.834a2.03 2.03 0 0 0-1.962 2.097v6.29h.15l.219.554a27.6 27.6 0 0 0-5.3 2.801h-.101V8.71A6.71 6.71 0 0 1 35.549 2h20.129a6.71 6.71 0 0 1 6.709 6.71zM22.13 45.613c0-13.874 10.534-25.162 23.483-25.162 12.95 0 23.484 11.288 23.484 25.162"/><path d="M62.286 18.774h.101V8.71A6.71 6.71 0 0 0 55.677 2H35.548a6.705 6.705 0 0 0-6.71 6.71v10.064h.101"/><path d="M57.199 15.419h.156v-6.29a2.03 2.03 0 0 0-1.957-2.097h-19.57a2.031 2.031 0 0 0-1.958 2.097v6.29h.158M35.549 33.87h20.129a5.032 5.032 0 0 1 5.032 5.033v20.129c0 .927-.751 1.678-1.677 1.678h-26.84a1.677 1.677 0 0 1-1.676-1.678v-20.13a5.032 5.032 0 0 1 5.032-5.031z"/><path d="M35.549 33.87h20.129a5.032 5.032 0 0 1 5.032 5.033v20.129c0 .927-.751 1.678-1.677 1.678h-26.84a1.677 1.677 0 0 1-1.676-1.678v-20.13a5.032 5.032 0 0 1 5.032-5.031zM30.516 42.258H60.71"/><path d="M40.58 54c-1.852 0-3.354-1.051-3.354-2.349v-4.697l3.355-4.697 3.354 4.698v4.697c0 1.297-1.501 2.347-3.354 2.347zM38.903 85.871c-1.853 0-3.354-1.052-3.354-2.349v-4.697l3.354-4.696 3.355 4.696v4.697c0 1.297-1.502 2.35-3.355 2.35zM22.13 74.129h46.967M3.678 72.451h11.741v21.807H5.354a1.677 1.677 0 0 1-1.677-1.678V72.451zM85.871 94.258H75.807V72.45h11.741V92.58c0 .927-.75 1.678-1.677 1.678zM8.71 59.032h6.709V72.45H2v-6.71a6.709 6.709 0 0 1 6.709-6.71z"/><path d="M89.226 72.451h-13.42V59.032h6.71a6.71 6.71 0 0 1 6.71 6.71v6.71z"/></g></svg>