<svg width="97" height="83" xmlns="http://www.w3.org/2000/svg"><g stroke="#000" stroke-width="4" fill="none" fill-rule="evenodd" stroke-linecap="round" stroke-linejoin="round"><path d="M19.622 69.163h-4.829A12.789 12.789 0 0 1 2 56.37V40.38A31.97 31.97 0 0 1 33.982 8.396h14.392A27.186 27.186 0 0 1 75.56 35.58v33.582H40.38"/><path d="M29.985 59.568c5.74 0 10.394 4.653 10.394 10.394 0 5.741-4.654 10.394-10.394 10.394-5.741 0-10.395-4.653-10.395-10.394 0-5.74 4.654-10.394 10.395-10.394z"/><path d="M29.985 65.965a3.997 3.997 0 1 1 0 7.995 3.998 3.998 0 0 1 0-7.995zM75.56 62.767h15.99a3.198 3.198 0 1 1 0 6.396H75.56v-6.396zM89.951 62.767v-3.198M51.572 32.383h12.793a3.198 3.198 0 0 1 3.198 3.198v33.582H48.374V35.58a3.199 3.199 0 0 1 3.198-3.198zM35.581 2h9.595a3.198 3.198 0 0 1 3.198 3.198v3.198h-15.99V5.198A3.198 3.198 0 0 1 35.58 2zM13.194 33.983h22.387a3.198 3.198 0 0 1 3.198 3.198v11.194a3.198 3.198 0 0 1-3.198 3.197H13.194a3.198 3.198 0 0 1-3.198-3.198V37.18a3.198 3.198 0 0 1 3.198-3.197zM24.388 33.983v4.797M24.388 45.176v6.396M59.568 51.572h1.599M2 80.356h73.56M81.956 80.356h12.793M89.951 69.163v3.198M89.951 73.96a3.198 3.198 0 1 1 .001 6.395 3.198 3.198 0 0 1 0-6.395z"/></g></svg>