<svg width="79" height="32" xmlns="http://www.w3.org/2000/svg"><path d="M3.404 19.146a9.687 9.687 0 0 1-2.086-3.472c-.454-1.311-.656-2.701-.605-4.171.113-3.234 1.364-5.964 3.752-8.19C6.853 1.084 9.664.027 12.897.14L65.2.423c1.97.039 3.78.47 5.43 1.293a12.888 12.888 0 0 1 4.21 3.325c1.158 1.395 2.035 3.037 2.63 4.926.597 1.89.871 3.938.824 6.143-.098 1.969-.592 3.894-1.482 5.776a15.47 15.47 0 0 1-3.705 4.947 16.563 16.563 0 0 1-5.277 3.215c-1.938.727-3.893 1.07-5.863 1.032l-39.593-.191a1.88 1.88 0 0 1-1.415-.557 1.962 1.962 0 0 1-.59-1.411c.018-.53.225-.993.622-1.391a2.003 2.003 0 0 1 1.434-.613l39.592.191c1.5.023 2.981-.249 4.443-.816a13.095 13.095 0 0 0 3.97-2.422 12.722 12.722 0 0 0 2.755-3.678c.68-1.374 1.031-2.782 1.052-4.223.125-2.733-.542-5.324-2.002-7.774-1.46-2.45-3.821-3.716-7.085-3.801l-52.303-.281c-2.176-.076-4.054.623-5.636 2.098-1.582 1.476-2.41 3.3-2.487 5.476-.035 1 .102 1.924.411 2.773.309.85.806 1.581 1.49 2.194.627.61 1.404 1.093 2.334 1.45.93.356 1.938.538 3.027.547l41.624.173c.764.027 1.755-.115 2.972-.426 1.218-.31 1.838-1.216 1.861-2.716.06-.852-.03-1.45-.268-1.797-.238-.347-.4-.566-.485-.657-.286-.246-.684-.444-1.193-.594a8.748 8.748 0 0 0-1.778-.305l-31.34-.123c-.559.01-1.023-.183-1.392-.578a2.082 2.082 0 0 1-.568-1.433c-.01-.56.183-1.024.579-1.392a2.082 2.082 0 0 1 1.432-.568l31.385.08c1.205.072 2.265.263 3.18.575.917.311 1.703.758 2.36 1.34.513.49 1.004 1.169 1.474 2.038.47.87.68 2.04.628 3.51-.048 2.206-.896 3.95-2.545 5.23-1.648 1.282-3.766 1.878-6.353 1.787l-41.67-.13c-1.587-.056-3.07-.35-4.45-.884a10.83 10.83 0 0 1-3.606-2.267 1.446 1.446 0 0 0-.215-.184 1.446 1.446 0 0 1-.214-.184z" fill="#000" fill-rule="evenodd"/></svg>