<svg width="70" height="93" xmlns="http://www.w3.org/2000/svg" xmlns:xlink="http://www.w3.org/1999/xlink"><defs><path id="a" d="M0 93h70V0H0z"/></defs><g fill="none" fill-rule="evenodd"><path d="M20.53 28h45.94c.844 0 1.53.688 1.53 1.537v59.927c0 .849-.686 1.536-1.53 1.536H20.53c-.845 0-1.53-.687-1.53-1.536V29.537c0-.849.685-1.537 1.53-1.537zM23.067 2h39.866A3.062 3.062 0 0 1 66 5.059V28H20V5.059A3.062 3.062 0 0 1 23.067 2z" stroke="#000" stroke-width="4" stroke-linecap="round" stroke-linejoin="round"/><mask id="b" fill="#fff"><use xlink:href="#a"/></mask><path stroke="#000" stroke-width="4" stroke-linecap="round" stroke-linejoin="round" mask="url(#b)" d="M19 80h49V39H19zM34.5 8c2.485 0 4.5 2.686 4.5 6s-2.015 6-4.5 6-4.5-2.686-4.5-6 2.015-6 4.5-6zM6.5 24c2.485 0 4.5 2.686 4.5 6 0 3.313-2.015 6-4.5 6S2 33.313 2 30c0-3.314 2.015-6 4.5-6zM43.5 8c2.486 0 4.5 2.686 4.5 6s-2.014 6-4.5 6-4.5-2.686-4.5-6 2.014-6 4.5-6zM34 20v8M25 20v8M24.5 8c2.485 0 4.5 2.686 4.5 6s-2.015 6-4.5 6-4.5-2.686-4.5-6 2.015-6 4.5-6zM52.5 8c2.485 0 4.5 2.686 4.5 6s-2.015 6-4.5 6-4.5-2.686-4.5-6 2.015-6 4.5-6zM53 20v8M61.5 8c2.485 0 4.5 2.686 4.5 6s-2.015 6-4.5 6-4.5-2.686-4.5-6 2.015-6 4.5-6zM62 20v8M43 20v8"/><path d="M9.97 34H10v48.94C10 84.63 8.657 86 7 86s-3-1.37-3-3.06V34h.03M40.375 48.563v6.25c0 .863-.699 1.563-1.562 1.563h-6.25c-.863 0-1.563.7-1.563 1.562v3.124c0 .864.7 1.563 1.563 1.563h6.25c.863 0 1.562.7 1.562 1.562v6.251c0 .861.7 1.562 1.563 1.562h3.125c.862 0 1.562-.7 1.562-1.562v-6.25c0-.863.7-1.563 1.563-1.563h6.25c.862 0 1.562-.7 1.562-1.563v-3.124c0-.863-.7-1.562-1.562-1.562h-6.25c-.863 0-1.563-.7-1.563-1.563v-6.25c0-.863-.7-1.563-1.562-1.563h-3.125c-.863 0-1.563.7-1.563 1.563z" stroke="#000" stroke-width="4" stroke-linecap="round" stroke-linejoin="round" mask="url(#b)"/></g></svg>