<svg width="106" height="26" xmlns="http://www.w3.org/2000/svg" xmlns:xlink="http://www.w3.org/1999/xlink"><defs><path d="M102 13h22v5.6h-7.687V39h-6.699V18.6H102V13zm40.419 26l-3.736-7.195h-4.98V39H127V13h11.537c3.393 0 6.024.797 7.892 2.392 1.868 1.595 2.802 3.84 2.802 6.732 0 1.954-.39 3.641-1.172 5.063-.781 1.422-1.917 2.528-3.406 3.32L150 39h-7.581zM134 26h4.788c1.344 0 2.382-.347 3.114-1.042.732-.694 1.098-1.7 1.098-3.014 0-1.265-.366-2.239-1.098-2.92-.732-.683-1.77-1.024-3.114-1.024H134v8zm17-13h7.227l6.42 18.805L171.103 13H178l-10.052 26h-6.97L151 13zm31.982 9c.89 0 1.614.277 2.176.832.561.555.842 1.272.842 2.15 0 .88-.28 1.602-.842 2.168-.562.567-1.287.85-2.176.85-.865 0-1.578-.283-2.14-.85-.561-.566-.842-1.289-.842-2.167 0-.879.275-1.596.825-2.15.55-.556 1.269-.833 2.157-.833zm0 11c.89 0 1.614.277 2.176.832.561.555.842 1.272.842 2.15 0 .88-.28 1.602-.842 2.168-.562.567-1.287.85-2.176.85-.865 0-1.578-.283-2.14-.85-.561-.566-.842-1.289-.842-2.167 0-.879.275-1.596.825-2.15.55-.556 1.269-.833 2.157-.833zM190 13h6.863v20.214H208V39h-18V13z" id="a"/><filter x="-.5%" y="-1.9%" width="100.9%" height="103.8%" filterUnits="objectBoundingBox" id="b"><feOffset dx="1" dy="-1" in="SourceAlpha" result="shadowOffsetInner1"/><feComposite in="shadowOffsetInner1" in2="SourceAlpha" operator="arithmetic" k2="-1" k3="1" result="shadowInnerInner1"/><feColorMatrix values="0 0 0 0 0 0 0 0 0 0 0 0 0 0 0 0 0 0 0.5 0" in="shadowInnerInner1"/></filter></defs><g transform="translate(-102 -13)" fill="none" fill-rule="evenodd"><use fill="#FFF" xlink:href="#a"/><use fill="#000" filter="url(#b)" xlink:href="#a"/></g></svg>